<svg width="15" height="16" viewBox="0 0 15 16" fill="none" xmlns="http://www.w3.org/2000/svg">
<path d="M7.16032 10.4562L2.1822 5.23147C2.09909 5.14429 2.05273 5.02847 2.05273 4.90803C2.05273 4.78759 2.09909 4.67177 2.1822 4.58459L2.18782 4.57897C2.22811 4.53656 2.2766 4.50279 2.33035 4.47972C2.3841 4.45664 2.44199 4.44474 2.50048 4.44474C2.55897 4.44474 2.61686 4.45664 2.67061 4.47972C2.72436 4.50279 2.77285 4.53656 2.81314 4.57897L7.50064 9.49897L12.1863 4.57897C12.2265 4.53656 12.275 4.50279 12.3288 4.47972C12.3825 4.45664 12.4404 4.44474 12.4989 4.44474C12.5574 4.44474 12.6153 4.45664 12.669 4.47972C12.7228 4.50279 12.7713 4.53656 12.8116 4.57897L12.8172 4.58459C12.9003 4.67177 12.9467 4.78759 12.9467 4.90803C12.9467 5.02847 12.9003 5.14429 12.8172 5.23147L7.83907 10.4562C7.7953 10.5021 7.74264 10.5387 7.68431 10.5637C7.62597 10.5887 7.56316 10.6016 7.4997 10.6016C7.43623 10.6016 7.37343 10.5887 7.31509 10.5637C7.25676 10.5387 7.2041 10.5021 7.16032 10.4562Z" fill="#1C1C1C"/>
</svg>
