<svg width="15" height="16" viewBox="0 0 15 16" fill="none" xmlns="http://www.w3.org/2000/svg">
<path d="M7.16032 5.54384L2.1822 10.7685C2.09909 10.8557 2.05273 10.9715 2.05273 11.092C2.05273 11.2124 2.09909 11.3282 2.1822 11.4154L2.18782 11.421C2.22811 11.4634 2.2766 11.4972 2.33035 11.5203C2.3841 11.5434 2.44199 11.5553 2.50048 11.5553C2.55897 11.5553 2.61686 11.5434 2.67061 11.5203C2.72436 11.4972 2.77285 11.4634 2.81314 11.421L7.50064 6.50103L12.1863 11.421C12.2265 11.4634 12.275 11.4972 12.3288 11.5203C12.3825 11.5434 12.4404 11.5553 12.4989 11.5553C12.5574 11.5553 12.6153 11.5434 12.669 11.5203C12.7228 11.4972 12.7713 11.4634 12.8116 11.421L12.8172 11.4154C12.9003 11.3282 12.9467 11.2124 12.9467 11.092C12.9467 10.9715 12.9003 10.8557 12.8172 10.7685L7.83907 5.54384C7.7953 5.4979 7.74264 5.46131 7.68431 5.43632C7.62597 5.41133 7.56316 5.39844 7.4997 5.39844C7.43623 5.39844 7.37343 5.41133 7.31509 5.43632C7.25676 5.46131 7.2041 5.4979 7.16032 5.54384Z" fill="#1C1C1C"/>
</svg>
