<svg width="80" height="80" viewBox="0 0 80 80" fill="none" xmlns="http://www.w3.org/2000/svg">
<g clip-path="url(#clip0_1191_5849)">
<path d="M39.9992 80C61.8435 80 80 61.8824 80 40C80 18.1561 61.8034 0 39.959 0C18.0779 0 0 18.1561 0 40C0 61.8824 18.1163 80 39.9992 80ZM40.0008 73.3339C21.4879 73.3339 6.70139 58.5092 6.70139 40C6.70139 21.5277 21.4478 6.66611 39.959 6.66611C58.4301 6.66611 73.2919 21.5293 73.3321 40C73.3706 58.5108 58.4686 73.3339 39.9975 73.3339M39.959 47.0978C41.8397 47.0978 42.8989 46.0387 42.9374 44.0007L43.5264 23.2946C43.5665 21.2934 41.997 19.8042 39.9188 19.8042C37.8005 19.8042 36.3113 21.2549 36.3498 23.2544L36.8601 44.0007C36.8986 46.0002 37.998 47.0978 39.959 47.0978ZM39.959 59.8427C42.1928 59.8427 44.1923 58.039 44.1923 55.7651C44.1923 53.451 42.233 51.6858 39.959 51.6858C37.6449 51.6858 35.7223 53.4895 35.7223 55.7651C35.7223 58.0005 37.6834 59.8427 39.959 59.8427Z" fill="#F52020"/>
</g>
<defs>
<clipPath id="clip0_1191_5849">
<rect width="80" height="80" fill="white"/>
</clipPath>
</defs>
</svg>
