<svg width="32" height="32" viewBox="0 0 32 32" fill="none" xmlns="http://www.w3.org/2000/svg">
<path d="M15.9965 11.3314C13.4258 11.3314 11.3278 13.4293 11.3278 16.0001C11.3278 18.5708 13.4258 20.6687 15.9965 20.6687C18.5672 20.6687 20.6652 18.5708 20.6652 16.0001C20.6652 13.4293 18.5672 11.3314 15.9965 11.3314ZM29.999 16.0001C29.999 14.0668 30.0165 12.151 29.9079 10.2212C29.7993 7.97964 29.288 5.9903 27.6489 4.35119C26.0063 2.70858 24.0204 2.20074 21.7789 2.09216C19.8456 1.98359 17.9298 2.0011 16 2.0011C14.0667 2.0011 12.1509 1.98359 10.2211 2.09216C7.97958 2.20074 5.99024 2.71208 4.35113 4.35119C2.70852 5.9938 2.20068 7.97964 2.0921 10.2212C1.98353 12.1545 2.00104 14.0703 2.00104 16.0001C2.00104 17.9299 1.98353 19.8492 2.0921 21.779C2.20068 24.0205 2.71202 26.0098 4.35113 27.6489C5.99374 29.2915 7.97958 29.7994 10.2211 29.908C12.1544 30.0165 14.0702 29.999 16 29.999C17.9333 29.999 19.8491 30.0165 21.7789 29.908C24.0204 29.7994 26.0098 29.288 27.6489 27.6489C29.2915 26.0063 29.7993 24.0205 29.9079 21.779C30.02 19.8492 29.999 17.9334 29.999 16.0001ZM15.9965 23.1834C12.0213 23.1834 8.81314 19.9752 8.81314 16.0001C8.81314 12.0249 12.0213 8.81671 15.9965 8.81671C19.9717 8.81671 23.1799 12.0249 23.1799 16.0001C23.1799 19.9752 19.9717 23.1834 15.9965 23.1834ZM23.4741 10.2001C22.5459 10.2001 21.7964 9.45064 21.7964 8.52251C21.7964 7.59438 22.5459 6.84488 23.4741 6.84488C24.4022 6.84488 25.1517 7.59438 25.1517 8.52251C25.152 8.7429 25.1088 8.96117 25.0245 9.16484C24.9403 9.3685 24.8168 9.55355 24.6609 9.70939C24.5051 9.86523 24.32 9.98879 24.1164 10.073C23.9127 10.1572 23.6944 10.2004 23.4741 10.2001Z" fill="currentColor"/>
</svg>
