<svg width="58" height="18" viewBox="0 0 58 18" fill="none" xmlns="http://www.w3.org/2000/svg">
<path fill-rule="evenodd" clip-rule="evenodd" d="M57.8844 0.428467H32.7803V17.5713H57.8844V0.428467ZM40.7076 5.14854V8.88776V12.6094C40.7076 12.6173 40.7078 12.6253 40.708 12.6332V12.6332C40.7084 12.6489 40.7088 12.6646 40.7076 12.6798C40.7041 12.7229 40.7155 12.7484 40.7648 12.7414C40.7765 12.7402 40.7882 12.7406 40.8 12.741H40.8C40.8059 12.7412 40.8117 12.7414 40.8176 12.7414L41.4414 12.7416C41.8576 12.7418 42.2741 12.742 42.6906 12.7414C42.6986 12.7414 42.7061 12.7414 42.7131 12.7415C42.7175 12.7415 42.7216 12.7416 42.7256 12.7416C42.7655 12.7421 42.785 12.7424 42.7943 12.7328C42.8031 12.7237 42.8027 12.7056 42.802 12.6705C42.8017 12.6586 42.8014 12.6448 42.8014 12.6287V5.1591C42.8014 5.15323 42.8012 5.14736 42.801 5.1415C42.8007 5.12976 42.8003 5.11803 42.8014 5.1063C42.8058 5.06229 42.7909 5.03941 42.7434 5.04469C42.734 5.04586 42.7243 5.04548 42.7144 5.04509C42.7094 5.04489 42.7044 5.04469 42.6994 5.04469L42.0694 5.0445H42.0687C41.6487 5.0443 41.2285 5.04411 40.8088 5.04469C40.7963 5.04469 40.7854 5.04453 40.7758 5.04438C40.7412 5.04387 40.7238 5.0436 40.7152 5.05217C40.7065 5.06083 40.7068 5.07853 40.7073 5.11413V5.11414C40.7074 5.12413 40.7076 5.13553 40.7076 5.14854ZM51.1363 5.04495H48.0131H48.0114C46.9712 5.04495 45.9311 5.04495 44.8917 5.04407L44.8681 5.04427H44.8681H44.8681C44.8526 5.04446 44.8372 5.04466 44.8214 5.04407C44.7862 5.04231 44.7739 5.05903 44.7765 5.09159C44.7771 5.10152 44.7769 5.11107 44.7767 5.12074V5.12077L44.7765 5.13559V6.92204L44.7764 6.94057C44.7763 6.97894 44.7762 6.99782 44.7856 7.00702C44.7947 7.01594 44.8127 7.01578 44.8481 7.01546L44.8724 7.01532H46.8342C46.8982 7.01532 46.9298 7.01532 46.9455 7.03116C46.9609 7.0467 46.9609 7.0775 46.9609 7.13853V12.6466L46.9607 12.6749V12.6749C46.9602 12.7066 46.96 12.7231 46.9681 12.7317C46.977 12.7411 46.996 12.741 47.0356 12.7408L47.0551 12.7408H47.0815H48.9377C48.9967 12.7408 49.0259 12.7408 49.0405 12.7261C49.0548 12.7117 49.0548 12.6831 49.0548 12.6264V7.11829C49.0548 7.10635 49.0546 7.09579 49.0544 7.08647V7.08643C49.0539 7.05237 49.0537 7.03466 49.0624 7.02553C49.0718 7.01564 49.0917 7.01578 49.1333 7.01608L49.1594 7.0162H51.1565C51.2427 7.0162 51.2427 7.0162 51.2436 6.93084V6.90444V5.15319L51.2438 5.12049C51.2443 5.08174 51.2445 5.06253 51.2351 5.05313C51.2257 5.04389 51.207 5.04415 51.1698 5.04466C51.16 5.0448 51.1488 5.04495 51.1363 5.04495Z" fill="#FCFCFC"/>
<path fill-rule="evenodd" clip-rule="evenodd" d="M25.933 0.428467H0.829102V17.5713H25.933L32.7795 8.9999L25.933 0.428467ZM11.928 7.74722L11.9281 7.7473L11.9282 7.74737C11.9662 7.77825 12.0045 7.80932 12.0432 7.84046C12.069 7.82476 12.0849 7.80328 12.0999 7.78305L12.1104 7.76918C12.2464 7.60725 12.3816 7.44445 12.5168 7.28165C12.788 6.95692 13.0583 6.63219 13.3287 6.30658C13.3826 6.24146 13.3808 6.21154 13.319 6.15874C13.2704 6.11649 13.2209 6.07513 13.1705 6.03377C12.7412 5.68176 12.2694 5.4072 11.7349 5.24791C11.378 5.14231 11.0131 5.08423 10.6421 5.05871C10.1579 5.02615 9.67819 5.04199 9.20289 5.15199C7.53844 5.53568 6.29629 6.91556 6.15051 8.6844C6.11164 9.16138 6.14875 9.63395 6.27066 10.0977C6.54807 11.1476 7.1506 11.9519 8.10739 12.4817C8.62863 12.7704 9.19317 12.9226 9.78686 12.9701C10.2895 13.0106 10.7869 12.9798 11.2781 12.8689C12.1086 12.6815 12.8428 12.3031 13.4956 11.7618C13.5478 11.7187 13.569 11.6756 13.569 11.607C13.5669 10.7654 13.567 9.92319 13.5671 9.08136V9.08036L13.5672 8.44856C13.5672 8.43762 13.5664 8.42651 13.5657 8.41541C13.564 8.39081 13.5623 8.36628 13.569 8.34383C13.5767 8.31778 13.5627 8.30284 13.549 8.28827C13.5378 8.27627 13.5267 8.26452 13.5283 8.24703C13.5319 8.21799 13.5124 8.21359 13.4895 8.21359H13.4276H9.98298C9.97624 8.21359 9.96941 8.21378 9.96254 8.21398H9.96252C9.94869 8.21437 9.93472 8.21477 9.92114 8.21359C9.8858 8.21007 9.87432 8.22767 9.87697 8.26023C9.87815 8.27375 9.87775 8.28766 9.87736 8.30144V8.30146C9.87716 8.30831 9.87697 8.31512 9.87697 8.32183L9.87677 8.87625C9.87658 9.24586 9.87638 9.61547 9.87697 9.98508C9.87697 10.0004 9.87669 10.0135 9.87645 10.0249C9.87573 10.0587 9.87536 10.0761 9.88387 10.0849C9.89287 10.0943 9.91181 10.094 9.95077 10.0936L9.98387 10.0933H11.3709L11.4036 10.0931H11.4036C11.442 10.0926 11.4607 10.0924 11.4696 10.1016C11.478 10.1103 11.4778 10.1275 11.4772 10.1608C11.477 10.1726 11.4768 10.1863 11.4769 10.2024C11.4775 10.2827 11.4773 10.3626 11.4771 10.4426V10.4427V10.4428L11.4769 10.5633V10.5662C11.4769 10.7314 11.4769 10.7326 11.3276 10.8044C10.8903 11.0138 10.4283 11.0737 9.95118 11.0138C9.4211 10.9478 8.99704 10.697 8.68606 10.2632C8.48375 9.98068 8.37331 9.66211 8.33179 9.3189C8.27966 8.88065 8.33267 8.45912 8.53145 8.06135C8.77087 7.58349 9.13309 7.24028 9.65345 7.08276C10.0183 6.97188 10.3876 7.00092 10.7534 7.081C11.0847 7.15316 11.3736 7.31509 11.6395 7.51837C11.737 7.59214 11.8317 7.66907 11.928 7.74722ZM21.7409 6.15078C20.9237 5.40628 19.9501 5.05163 18.9438 5.04371C18.4791 5.04459 18.1319 5.08243 17.7635 5.17835C16.6945 5.45732 15.8579 6.05573 15.3022 7.01144C14.7315 7.99178 14.6157 9.04341 14.9347 10.125C15.2916 11.3341 16.0523 12.2141 17.229 12.7043C18.1328 13.0801 19.0693 13.1302 20.0137 12.8821C21.111 12.5943 21.952 11.958 22.5033 10.9654C22.968 10.1285 23.0926 9.23086 22.9194 8.29363C22.7639 7.45145 22.3752 6.72983 21.7409 6.15078ZM17.2281 8.04107C17.5842 7.38369 18.1531 7.06864 18.7053 7.05632C19.8255 7.05368 20.5579 7.68466 20.7576 8.5594C20.8786 9.08653 20.8247 9.59871 20.5659 10.0774C20.2611 10.6398 19.7858 10.9671 19.1461 11.0402C18.5277 11.1115 17.9879 10.9363 17.5471 10.491C17.2644 10.2059 17.0939 9.85831 17.0214 9.46582C16.9295 8.96861 16.9861 8.48724 17.2281 8.04107Z" fill="#FCFCFC"/>
</svg>
