<svg width="115" height="18" viewBox="0 0 115 18" fill="none" xmlns="http://www.w3.org/2000/svg">
<path d="M33.2933 4.13715C33.2363 4.13569 30.0882 4.13496 30.0305 4.13496C29.4399 4.13496 28.9102 4.19105 28.4414 4.30323C27.9727 4.41541 27.5696 4.58368 27.232 4.80803C26.8945 5.02304 26.6367 5.29414 26.4586 5.62132C26.2805 5.94851 26.1914 6.32244 26.1914 6.74311C26.1914 7.18247 26.2758 7.5564 26.4445 7.86489C26.6227 8.16403 26.857 8.41643 27.1477 8.62209C27.4477 8.8184 27.7805 8.98667 28.1461 9.12689C28.5211 9.26711 28.9055 9.38864 29.2993 9.49147C29.693 9.5943 30.0727 9.69713 30.4383 9.79996C30.8134 9.90279 31.1462 10.0196 31.4368 10.1505C31.7368 10.2814 31.9712 10.445 32.1399 10.6413C32.3181 10.8376 32.4071 11.0853 32.4071 11.3845C32.4071 11.5808 32.3649 11.7537 32.2806 11.9033C32.1962 12.0529 32.079 12.1837 31.929 12.2959C31.779 12.3988 31.6009 12.4876 31.3946 12.5623C31.1977 12.6278 30.9774 12.6792 30.7337 12.7166C30.4899 12.7446 30.2368 12.7587 29.9743 12.7587C29.9377 12.7587 26.5069 12.7583 26.4709 12.7576V14.09C26.5071 14.0905 29.9379 14.0908 29.9743 14.0908C30.7524 14.0908 31.4415 13.9926 32.0415 13.7963C32.6509 13.6 33.129 13.2868 33.4759 12.8568C33.8228 12.4174 33.9962 11.8519 33.9962 11.1601C33.9962 10.7208 33.9071 10.3515 33.729 10.0524C33.5509 9.74387 33.3118 9.48679 33.0118 9.28113C32.7212 9.07547 32.3884 8.90253 32.0134 8.76231C31.6477 8.62209 31.268 8.50056 30.8743 8.39773C30.4899 8.28555 30.1102 8.18272 29.7352 8.08924C29.3696 7.98641 29.0368 7.87423 28.7368 7.75271C28.4461 7.63118 28.2117 7.48629 28.0336 7.31802C27.8555 7.1404 27.7664 6.91605 27.7664 6.64495C27.7664 6.4019 27.8508 6.19624 28.0196 6.02797C28.1977 5.85035 28.4555 5.71481 28.793 5.62132C29.1305 5.51849 29.5477 5.46708 30.0446 5.46708C30.098 5.46708 33.2415 5.46798 33.2933 5.46978V4.13715Z" fill="#FCFCFC"/>
<path fill-rule="evenodd" clip-rule="evenodd" d="M40.8299 14.0908C39.8362 14.0908 38.9737 13.9085 38.2424 13.5439C37.5205 13.1793 36.9627 12.6278 36.5689 11.8893C36.1845 11.1508 35.9924 10.2253 35.9924 9.11287C35.9924 7.99109 36.1845 7.06562 36.5689 6.33646C36.9627 5.59795 37.5205 5.04641 38.2424 4.68183C38.9737 4.31725 39.8362 4.13496 40.8299 4.13496C41.8424 4.13496 42.7096 4.31725 43.4315 4.68183C44.1534 5.04641 44.7066 5.59795 45.0909 6.33646C45.4847 7.06562 45.6816 7.99109 45.6816 9.11287C45.6816 10.2253 45.4847 11.1508 45.0909 11.8893C44.7066 12.6278 44.1534 13.1793 43.4315 13.5439C42.7096 13.9085 41.8424 14.0908 40.8299 14.0908ZM40.8299 12.7587C41.3456 12.7587 41.8003 12.6885 42.194 12.5483C42.5971 12.4081 42.9346 12.1931 43.2065 11.9033C43.4878 11.6135 43.6987 11.2489 43.8393 10.8096C43.9894 10.3702 44.0644 9.86072 44.0644 9.28113V8.97264C44.0644 8.37436 43.9894 7.85554 43.8393 7.41617C43.6987 6.97681 43.4878 6.61223 43.2065 6.32244C42.9346 6.03264 42.5971 5.81764 42.194 5.67741C41.8003 5.53719 41.3456 5.46708 40.8299 5.46708C40.3237 5.46708 39.869 5.53719 39.4658 5.67741C39.0721 5.81764 38.7346 6.03264 38.4533 6.32244C38.1815 6.61223 37.9752 6.97681 37.8346 7.41617C37.6939 7.85554 37.6236 8.37436 37.6236 8.97264V9.28113C37.6236 9.86072 37.6939 10.3702 37.8346 10.8096C37.9752 11.2489 38.1815 11.6135 38.4533 11.9033C38.7346 12.1931 39.0721 12.4081 39.4658 12.5483C39.869 12.6885 40.3237 12.7587 40.8299 12.7587Z" fill="#FCFCFC"/>
<path d="M48.1304 5.7064V13.9225H49.7054V9.82796H54.5148V8.49585H49.7054V6.21061C49.7054 5.90062 49.9574 5.64933 50.2683 5.64933H55.0211V4.30319H49.5376C48.7604 4.30319 48.1304 4.93143 48.1304 5.7064Z" fill="#FCFCFC"/>
<path d="M59.7229 13.9225V5.64933H56.5306V4.30319H64.5183V5.64933H61.2979V13.9225H59.7229Z" fill="#FCFCFC"/>
<path fill-rule="evenodd" clip-rule="evenodd" d="M66.6039 4.30319V13.9225H68.179V10.2066H71.5259L73.354 13.9225H75.0697L73.0587 9.94014C73.5931 9.71578 74.0056 9.36523 74.2962 8.88847C74.5869 8.41171 74.7322 7.85082 74.7322 7.2058C74.7322 6.62621 74.6197 6.12141 74.3947 5.69139C74.1697 5.25203 73.8322 4.91082 73.3822 4.66777C72.9322 4.42472 72.365 4.30319 71.6806 4.30319H66.6039ZM71.554 8.88847H68.179V5.64933H71.554C71.9009 5.64933 72.1915 5.71009 72.4259 5.83162C72.6603 5.95314 72.8384 6.13076 72.9603 6.36446C73.0822 6.58882 73.1431 6.86459 73.1431 7.19178C73.1431 7.72462 73.0025 8.14062 72.7212 8.43976C72.4493 8.7389 72.0603 8.88847 71.554 8.88847Z" fill="#FCFCFC"/>
<path d="M79.8533 13.9225V9.96818L76.0985 4.30319H77.8986L80.6549 8.56596H80.7252L83.4533 4.30319H85.183L81.4283 9.96818V13.9225H79.8533Z" fill="#FCFCFC"/>
<path d="M86.3928 13.1512V13.9225H94.3664V12.5763H88.6991L94.2398 5.07441V4.30319H86.7584V5.64933H91.9054L86.3928 13.1512Z" fill="#FCFCFC"/>
<path d="M98.0625 13.9225C97.2853 13.9225 96.6553 13.2942 96.6553 12.5193V5.7064C96.6553 4.93143 97.2853 4.30319 98.0625 4.30319H104.137V5.64933H98.7932C98.4823 5.64933 98.2303 5.90062 98.2303 6.21061V8.32758H103.518V9.67372H98.2303V12.015C98.2303 12.325 98.4823 12.5763 98.7932 12.5763H104.221V13.9225H98.0625Z" fill="#FCFCFC"/>
<path d="M106.764 13.9225V4.30319H108.283L113.219 11.132H113.289V4.30319H114.808V13.9225H113.345L108.353 6.99546H108.283V13.9225H106.764Z" fill="#FCFCFC"/>
<mask id="mask0_3012_347" style="mask-type:alpha" maskUnits="userSpaceOnUse" x="0" y="0" width="18" height="18">
<path fill-rule="evenodd" clip-rule="evenodd" d="M5.2479 0.428574C0.754688 0.428574 -1.4972 5.84393 1.67768 9.01427L7.54407 14.8723H0.611747V17.398H12.1668C16.662 17.398 18.913 11.9788 15.7343 8.80957L9.86151 2.95435H16.8131V0.428574H5.2479ZM9.86028 2.95435H5.2479C3.01052 2.95435 1.8892 5.65091 3.47012 7.22957L9.34095 13.092L7.55296 14.8723H12.1668C14.4052 14.8723 15.5261 12.1738 13.9432 10.5957L8.06985 4.73983L9.86028 2.95435Z" fill="#B0B0B0"/>
</mask>
<g mask="url(#mask0_3012_347)">
<g filter="url(#filter0_f_3012_347)">
<g filter="url(#filter1_f_3012_347)">
<ellipse cx="23.0883" cy="21.0601" rx="23.0883" ry="21.0601" transform="matrix(1 0 0 -1 23.0303 24.9429)" fill="#FCFCFC"/>
</g>
<g filter="url(#filter2_f_3012_347)">
<ellipse cx="22.0346" cy="11.6582" rx="22.0346" ry="11.6582" transform="matrix(0.983125 -0.182937 -0.182937 -0.983125 -9.51074 27.7275)" fill="#FCFCFC"/>
</g>
<g filter="url(#filter3_f_3012_347)">
<path d="M26.5121 12.5708C7.6068 13.5684 1.7843 31.3828 -4.79064 30.8758C-13.0558 30.2384 -11.5158 13.5287 -4.79064 7.16209C3.13647 -0.342463 39.3239 11.8947 26.5121 12.5708Z" fill="#FCFCFC"/>
</g>
<g filter="url(#filter4_f_3012_347)">
<path d="M6.22894 11.2692C0.422731 11.2692 -2.30664 8.18168 -2.30664 4.01817C-2.30664 -4.66953 48.9462 -7.75851 56.7076 -0.513464C62.4116 4.811 61.6802 12.3085 55.6677 14.9708C48.873 17.9793 44.7144 17.349 38.0388 14.9708C32.4688 12.9864 30.6547 11.1172 24.534 9.44376C18.805 7.87745 11.3863 11.2692 6.22894 11.2692Z" fill="#FCFCFC"/>
</g>
<g filter="url(#filter5_f_3012_347)">
<ellipse cx="9.98916" cy="8.95813" rx="9.98916" ry="8.95813" transform="matrix(1 0 0 -1 -9.86133 36.5041)" fill="#FCFCFC"/>
</g>
</g>
</g>
<defs>
<filter id="filter0_f_3012_347" x="-18.6422" y="-24.0694" width="94.7414" height="67.4657" filterUnits="userSpaceOnUse" color-interpolation-filters="sRGB">
<feFlood flood-opacity="0" result="BackgroundImageFix"/>
<feBlend mode="normal" in="SourceGraphic" in2="BackgroundImageFix" result="shape"/>
<feGaussianBlur stdDeviation="3.4461" result="effect1_foregroundBlur_3012_347"/>
</filter>
<filter id="filter1_f_3012_347" x="12.889" y="-27.3185" width="66.4593" height="62.4027" filterUnits="userSpaceOnUse" color-interpolation-filters="sRGB">
<feFlood flood-opacity="0" result="BackgroundImageFix"/>
<feBlend mode="normal" in="SourceGraphic" in2="BackgroundImageFix" result="shape"/>
<feGaussianBlur stdDeviation="5.07064" result="effect1_foregroundBlur_3012_347"/>
</filter>
<filter id="filter2_f_3012_347" x="-25.2717" y="-13.4395" width="70.5815" height="51.3492" filterUnits="userSpaceOnUse" color-interpolation-filters="sRGB">
<feFlood flood-opacity="0" result="BackgroundImageFix"/>
<feBlend mode="normal" in="SourceGraphic" in2="BackgroundImageFix" result="shape"/>
<feGaussianBlur stdDeviation="6.76086" result="effect1_foregroundBlur_3012_347"/>
</filter>
<filter id="filter3_f_3012_347" x="-17.1876" y="-2.02514" width="53.1799" height="39.6724" filterUnits="userSpaceOnUse" color-interpolation-filters="sRGB">
<feFlood flood-opacity="0" result="BackgroundImageFix"/>
<feBlend mode="normal" in="SourceGraphic" in2="BackgroundImageFix" result="shape"/>
<feGaussianBlur stdDeviation="3.38043" result="effect1_foregroundBlur_3012_347"/>
</filter>
<filter id="filter4_f_3012_347" x="-9.0675" y="-11.3173" width="76.4348" height="35.0758" filterUnits="userSpaceOnUse" color-interpolation-filters="sRGB">
<feFlood flood-opacity="0" result="BackgroundImageFix"/>
<feBlend mode="normal" in="SourceGraphic" in2="BackgroundImageFix" result="shape"/>
<feGaussianBlur stdDeviation="3.38043" result="effect1_foregroundBlur_3012_347"/>
</filter>
<filter id="filter5_f_3012_347" x="-20.0026" y="8.44653" width="40.2611" height="38.1988" filterUnits="userSpaceOnUse" color-interpolation-filters="sRGB">
<feFlood flood-opacity="0" result="BackgroundImageFix"/>
<feBlend mode="normal" in="SourceGraphic" in2="BackgroundImageFix" result="shape"/>
<feGaussianBlur stdDeviation="5.07064" result="effect1_foregroundBlur_3012_347"/>
</filter>
</defs>
</svg>
