<svg width="25" height="25" viewBox="0 0 25 25" fill="none" xmlns="http://www.w3.org/2000/svg">
<path fill-rule="evenodd" clip-rule="evenodd" d="M4.16634 4.427C3.40661 4.427 2.67799 4.72881 2.14077 5.26602C1.60356 5.80323 1.30176 6.53185 1.30176 7.29159V17.7083C1.30176 18.468 1.60356 19.1966 2.14077 19.7338C2.67799 20.271 3.40661 20.5728 4.16634 20.5728H20.833C21.5927 20.5728 22.3214 20.271 22.8586 19.7338C23.3958 19.1966 23.6976 18.468 23.6976 17.7083V7.29159C23.6976 6.53185 23.3958 5.80323 22.8586 5.26602C22.3214 4.72881 21.5927 4.427 20.833 4.427H4.16634ZM7.73926 8.73533C7.56945 8.62452 7.36321 8.58407 7.16412 8.62254C6.96503 8.661 6.7887 8.77536 6.67238 8.94145C6.55607 9.10753 6.50888 9.31234 6.5408 9.51258C6.57272 9.71282 6.68124 9.89281 6.84342 10.0145L12.0518 13.6603C12.1831 13.7522 12.3394 13.8015 12.4997 13.8015C12.6599 13.8015 12.8163 13.7522 12.9476 13.6603L18.1559 10.0145C18.2436 9.95726 18.319 9.88295 18.3774 9.79601C18.4358 9.70907 18.4762 9.61127 18.496 9.50842C18.5159 9.40558 18.5149 9.29978 18.4931 9.19733C18.4712 9.09489 18.429 8.99788 18.3689 8.91208C18.3088 8.82627 18.2321 8.75343 18.1433 8.69788C18.0545 8.64233 17.9554 8.60521 17.852 8.58872C17.7485 8.57223 17.6428 8.57672 17.5411 8.6019C17.4395 8.62709 17.3439 8.67247 17.2601 8.73533L12.4997 12.0676L7.73926 8.73533Z" fill="currentColor"/>
</svg>
