<svg width="25" height="25" viewBox="0 0 25 25" fill="none" xmlns="http://www.w3.org/2000/svg">
<path fill-rule="evenodd" clip-rule="evenodd" d="M4.16634 4.42725C3.40661 4.42725 2.67799 4.72905 2.14077 5.26626C1.60356 5.80348 1.30176 6.53209 1.30176 7.29183V17.7085C1.30176 18.4682 1.60356 19.1968 2.14077 19.7341C2.67799 20.2713 3.40661 20.5731 4.16634 20.5731H20.833C21.5927 20.5731 22.3214 20.2713 22.8586 19.7341C23.3958 19.1968 23.6976 18.4682 23.6976 17.7085V7.29183C23.6976 6.53209 23.3958 5.80348 22.8586 5.26626C22.3214 4.72905 21.5927 4.42725 20.833 4.42725H4.16634ZM7.73926 8.73558C7.56945 8.62477 7.36321 8.58432 7.16412 8.62278C6.96503 8.66124 6.7887 8.7756 6.67238 8.94169C6.55607 9.10778 6.50888 9.31258 6.5408 9.51282C6.57272 9.71306 6.68124 9.89305 6.84342 10.0147L12.0518 13.6606C12.1831 13.7525 12.3394 13.8017 12.4997 13.8017C12.6599 13.8017 12.8163 13.7525 12.9476 13.6606L18.1559 10.0147C18.2436 9.9575 18.319 9.8832 18.3774 9.79626C18.4358 9.70932 18.4762 9.61152 18.496 9.50867C18.5159 9.40582 18.5149 9.30003 18.4931 9.19758C18.4712 9.09513 18.429 8.99812 18.3689 8.91232C18.3088 8.82652 18.2321 8.75368 18.1433 8.69813C18.0545 8.64258 17.9554 8.60545 17.852 8.58897C17.7485 8.57248 17.6428 8.57696 17.5411 8.60215C17.4395 8.62733 17.3439 8.67271 17.2601 8.73558L12.4997 12.0679L7.73926 8.73558Z" fill="#CA1246"/>
</svg>
