<svg width="25" height="25" viewBox="0 0 25 25" fill="none" xmlns="http://www.w3.org/2000/svg">
<path d="M18.118 14.9142L17.6124 15.4471C17.6124 15.4471 16.4091 16.713 13.1258 13.2565C9.84248 9.8 11.0458 8.53411 11.0458 8.53411L11.3636 8.19764C12.1491 7.37175 12.2236 6.04468 11.538 5.07526L10.138 3.09524C9.28915 1.89524 7.65028 1.73641 6.67806 2.75995L4.93363 4.59526C4.45252 5.1035 4.1303 5.75997 4.16919 6.48939C4.26919 8.35646 5.06696 12.3718 9.51582 17.0565C14.2347 22.0236 18.6624 22.2213 20.4724 22.0425C21.0457 21.986 21.5435 21.6777 21.9446 21.2542L23.5224 19.593C24.5891 18.4718 24.2891 16.5483 22.9246 15.7636L20.8024 14.5412C19.9069 14.0271 18.818 14.1777 18.118 14.9142Z" fill="#CA1246"/>
</svg>
