<svg width="25" height="25" viewBox="0 0 25 25" fill="none" xmlns="http://www.w3.org/2000/svg">
<path d="M18.118 14.914L17.6124 15.447C17.6124 15.447 16.4091 16.7129 13.1258 13.2564C9.84248 9.79987 11.0458 8.53397 11.0458 8.53397L11.3636 8.1975C12.1491 7.37161 12.2236 6.04454 11.538 5.07512L10.138 3.09511C9.28915 1.8951 7.65028 1.73627 6.67806 2.75981L4.93363 4.59512C4.45252 5.10336 4.1303 5.75983 4.16919 6.48925C4.26919 8.35633 5.06696 12.3717 9.51582 17.0564C14.2347 22.0235 18.6624 22.2211 20.4724 22.0423C21.0457 21.9858 21.5435 21.6776 21.9446 21.2541L23.5224 19.5929C24.5891 18.4717 24.2891 16.5482 22.9246 15.7634L20.8024 14.5411C19.9069 14.027 18.818 14.1776 18.118 14.914Z" fill="currentColor"/>
</svg>
