<svg width="81" height="82" viewBox="0 0 81 82" fill="none" xmlns="http://www.w3.org/2000/svg">
<mask id="path-1-outside-1_1191_5839" maskUnits="userSpaceOnUse" x="-0.5" y="0" width="82" height="82" fill="black">
<rect fill="white" x="-0.5" width="82" height="82"/>
<path fill-rule="evenodd" clip-rule="evenodd" d="M72.0813 12.397C73.1507 13.2704 73.3097 14.8453 72.4363 15.9147L39.7697 55.9147C39.3131 56.4737 38.6373 56.8081 37.916 56.832C37.1946 56.8558 36.4981 56.5668 36.0057 56.0391L22.0057 41.0391C21.0636 40.0298 21.1182 38.4478 22.1275 37.5057C23.1369 36.5636 24.7189 36.6182 25.661 37.6275L37.7077 50.5348L68.5637 12.752C69.437 11.6826 71.0119 11.5237 72.0813 12.397Z"/>
<path d="M75.5 41C75.5 60.33 59.83 76 40.5 76C21.17 76 5.5 60.33 5.5 41C5.5 21.67 21.17 6 40.5 6C42.8298 6 45.1063 6.22763 47.3087 6.66186C48.9181 6.97917 50.5 5.8015 50.5 4.16112C50.5 3.04224 49.7441 2.05733 48.6484 1.83057C46.0176 1.28609 43.2922 1 40.5 1C18.4086 1 0.5 18.9086 0.5 41C0.5 63.0914 18.4086 81 40.5 81C62.5914 81 80.5 63.0914 80.5 41C80.5 40.6495 80.4955 40.3 80.4865 39.9517C80.4533 38.6588 79.3678 37.6667 78.0744 37.6667C76.6095 37.6667 75.4699 38.9282 75.4948 40.3929C75.4983 40.5948 75.5 40.7972 75.5 41Z"/>
</mask>
<path fill-rule="evenodd" clip-rule="evenodd" d="M72.0813 12.397C73.1507 13.2704 73.3097 14.8453 72.4363 15.9147L39.7697 55.9147C39.3131 56.4737 38.6373 56.8081 37.916 56.832C37.1946 56.8558 36.4981 56.5668 36.0057 56.0391L22.0057 41.0391C21.0636 40.0298 21.1182 38.4478 22.1275 37.5057C23.1369 36.5636 24.7189 36.6182 25.661 37.6275L37.7077 50.5348L68.5637 12.752C69.437 11.6826 71.0119 11.5237 72.0813 12.397Z" fill="#CA1246"/>
<path d="M75.5 41C75.5 60.33 59.83 76 40.5 76C21.17 76 5.5 60.33 5.5 41C5.5 21.67 21.17 6 40.5 6C42.8298 6 45.1063 6.22763 47.3087 6.66186C48.9181 6.97917 50.5 5.8015 50.5 4.16112C50.5 3.04224 49.7441 2.05733 48.6484 1.83057C46.0176 1.28609 43.2922 1 40.5 1C18.4086 1 0.5 18.9086 0.5 41C0.5 63.0914 18.4086 81 40.5 81C62.5914 81 80.5 63.0914 80.5 41C80.5 40.6495 80.4955 40.3 80.4865 39.9517C80.4533 38.6588 79.3678 37.6667 78.0744 37.6667C76.6095 37.6667 75.4699 38.9282 75.4948 40.3929C75.4983 40.5948 75.5 40.7972 75.5 41Z" fill="#CA1246"/>
<path d="M72.4363 15.9147L72.8236 16.2309L72.4363 15.9147ZM72.0813 12.397L72.3976 12.0097L72.0813 12.397ZM39.7697 55.9147L39.3824 55.5984L39.7697 55.9147ZM37.916 56.832L37.8994 56.3322H37.8994L37.916 56.832ZM36.0057 56.0391L35.6402 56.3803L36.0057 56.0391ZM22.0057 41.0391L21.6402 41.3803H21.6402L22.0057 41.0391ZM22.1275 37.5057L21.7864 37.1402H21.7864L22.1275 37.5057ZM25.661 37.6275L25.2954 37.9687L25.661 37.6275ZM37.7077 50.5348L37.3422 50.8759C37.4407 50.9815 37.58 51.0393 37.7243 51.0345C37.8685 51.0297 38.0037 50.9628 38.095 50.851L37.7077 50.5348ZM68.5637 12.752L68.9509 13.0683V13.0683L68.5637 12.752ZM75.4948 40.3929L74.9949 40.4014L75.4948 40.3929ZM80.4865 39.9517L79.9867 39.9645L80.4865 39.9517ZM48.6484 1.83057L48.5471 2.32019L48.6484 1.83057ZM47.3087 6.66186L47.4054 6.1713L47.3087 6.66186ZM72.8236 16.2309C73.8716 14.9476 73.6809 13.0578 72.3976 12.0097L71.7651 12.7843C72.6206 13.4829 72.7477 14.7429 72.0491 15.5984L72.8236 16.2309ZM40.1569 56.2309L72.8236 16.2309L72.0491 15.5984L39.3824 55.5984L40.1569 56.2309ZM37.9325 57.3317C38.7981 57.3031 39.6091 56.9017 40.1569 56.2309L39.3824 55.5984C39.0172 56.0456 38.4765 56.3132 37.8994 56.3322L37.9325 57.3317ZM35.6402 56.3803C36.2311 57.0134 37.0669 57.3603 37.9325 57.3317L37.8994 56.3322C37.3224 56.3513 36.7652 56.1201 36.3712 55.698L35.6402 56.3803ZM21.6402 41.3803L35.6402 56.3803L36.3712 55.698L22.3712 40.698L21.6402 41.3803ZM21.7864 37.1402C20.5751 38.2707 20.5097 40.169 21.6402 41.3803L22.3712 40.698C21.6176 39.8905 21.6612 38.6249 22.4687 37.8712L21.7864 37.1402ZM26.0265 37.2864C24.896 36.0751 22.9976 36.0097 21.7864 37.1402L22.4687 37.8712C23.2762 37.1176 24.5418 37.1612 25.2954 37.9687L26.0265 37.2864ZM38.0733 50.1936L26.0265 37.2864L25.2954 37.9687L37.3422 50.8759L38.0733 50.1936ZM68.1764 12.4357L37.3205 50.2185L38.095 50.851L68.9509 13.0683L68.1764 12.4357ZM72.3976 12.0097C71.1143 10.9617 69.2244 11.1524 68.1764 12.4357L68.9509 13.0683C69.6496 12.2127 70.9095 12.0856 71.7651 12.7843L72.3976 12.0097ZM40.5 76.5C60.1061 76.5 76 60.6061 76 41H75C75 60.0538 59.5538 75.5 40.5 75.5V76.5ZM5 41C5 60.6061 20.8939 76.5 40.5 76.5V75.5C21.4462 75.5 6 60.0538 6 41H5ZM40.5 5.5C20.8939 5.5 5 21.3939 5 41H6C6 21.9462 21.4462 6.5 40.5 6.5V5.5ZM47.4054 6.1713C45.1714 5.73083 42.8624 5.5 40.5 5.5V6.5C42.7971 6.5 45.0413 6.72443 47.212 7.15242L47.4054 6.1713ZM48.7498 1.34095C46.0858 0.789612 43.3264 0.5 40.5 0.5V1.5C43.258 1.5 45.9494 1.78258 48.5471 2.32019L48.7498 1.34095ZM40.5 0.5C18.1325 0.5 0 18.6325 0 41H1C1 19.1848 18.6848 1.5 40.5 1.5V0.5ZM0 41C0 63.3675 18.1325 81.5 40.5 81.5V80.5C18.6848 80.5 1 62.8152 1 41H0ZM40.5 81.5C62.8675 81.5 81 63.3675 81 41H80C80 62.8152 62.3152 80.5 40.5 80.5V81.5ZM81 41C81 40.6452 80.9954 40.2915 80.9864 39.9388L79.9867 39.9645C79.9955 40.3086 80 40.6538 80 41H81ZM76 41C76 40.7944 75.9982 40.5892 75.9948 40.3844L74.9949 40.4014C74.9983 40.6005 75 40.8001 75 41H76ZM78.0744 37.1667C76.3054 37.1667 74.9657 38.6826 74.9949 40.4014L75.9948 40.3844C75.9742 39.1738 76.9137 38.1667 78.0744 38.1667V37.1667ZM80.9864 39.9388C80.9457 38.3568 79.6204 37.1667 78.0744 37.1667V38.1667C79.1151 38.1667 79.9609 38.9608 79.9867 39.9645L80.9864 39.9388ZM51 4.16112C51 2.81986 50.0917 1.61867 48.7498 1.34095L48.5471 2.32019C49.3965 2.49598 50 3.26461 50 4.16112H51ZM47.212 7.15242C49.0976 7.52418 51 6.14908 51 4.16112H50C50 5.45392 48.7387 6.43416 47.4054 6.1713L47.212 7.15242Z" fill="#CA1246" mask="url(#path-1-outside-1_1191_5839)"/>
</svg>
