<svg width="32" height="32" viewBox="0 0 32 32" fill="none" xmlns="http://www.w3.org/2000/svg">
<path d="M16 2.00006C8.272 2.00006 2 8.27206 2 16.0001C2 23.7281 8.272 30.0001 16 30.0001C23.728 30.0001 30 23.7281 30 16.0001C30 8.27206 23.728 2.00006 16 2.00006ZM22.496 11.5201C22.286 13.7321 21.376 19.1081 20.914 21.5861C20.718 22.6361 20.326 22.9861 19.962 23.0281C19.15 23.0981 18.534 22.4961 17.75 21.9781C16.518 21.1661 15.818 20.6621 14.628 19.8781C13.242 18.9681 14.138 18.4641 14.936 17.6521C15.146 17.4421 18.73 14.1801 18.8 13.8861C18.8097 13.8415 18.8084 13.7953 18.7962 13.7514C18.784 13.7075 18.7613 13.6672 18.73 13.6341C18.646 13.5641 18.534 13.5921 18.436 13.6061C18.31 13.6341 16.35 14.9361 12.528 17.5121C11.968 17.8901 11.464 18.0861 11.016 18.0721C10.512 18.0581 9.56 17.7921 8.846 17.5541C7.964 17.2741 7.278 17.1201 7.334 16.6301C7.362 16.3781 7.712 16.1261 8.37 15.8601C12.458 14.0821 15.174 12.9061 16.532 12.3461C20.424 10.7221 21.222 10.4421 21.754 10.4421C21.866 10.4421 22.132 10.4701 22.3 10.6101C22.44 10.7221 22.482 10.8761 22.496 10.9881C22.482 11.0721 22.51 11.3241 22.496 11.5201Z" fill="currentColor"/>
</svg>
